<svg id="visual" viewBox="0 0 960 540" width="960" height="540" xmlns="http://www.w3.org/2000/svg" xmlns:xlink="http://www.w3.org/1999/xlink" version="1.1"><path d="M0 60L32 61C64 62 128 64 192 78.5C256 93 320 120 384 119C448 118 512 89 576 72.8C640 56.7 704 53.3 768 66.8C832 80.3 896 110.7 928 125.8L960 141L960 0L928 0C896 0 832 0 768 0C704 0 640 0 576 0C512 0 448 0 384 0C320 0 256 0 192 0C128 0 64 0 32 0L0 0Z" fill="#001667"></path><path d="M0 104L32 112C64 120 128 136 192 152.2C256 168.3 320 184.7 384 183.8C448 183 512 165 576 144.3C640 123.7 704 100.3 768 104.8C832 109.3 896 141.7 928 157.8L960 174L960 139L928 123.8C896 108.7 832 78.3 768 64.8C704 51.3 640 54.7 576 70.8C512 87 448 116 384 117C320 118 256 91 192 76.5C128 62 64 60 32 59L0 58Z" fill="#00114a"></path><path d="M0 179L32 211.5C64 244 128 309 192 342.3C256 375.7 320 377.3 384 356.5C448 335.7 512 292.3 576 287C640 281.7 704 314.3 768 321.7C832 329 896 311 928 302L960 293L960 172L928 155.8C896 139.7 832 107.3 768 102.8C704 98.3 640 121.7 576 142.3C512 163 448 181 384 181.8C320 182.7 256 166.3 192 150.2C128 134 64 118 32 110L0 102Z" fill="#06072f"></path><path d="M0 282L32 300.8C64 319.7 128 357.3 192 381.7C256 406 320 417 384 400C448 383 512 338 576 337C640 336 704 379 768 390.7C832 402.3 896 382.7 928 372.8L960 363L960 291L928 300C896 309 832 327 768 319.7C704 312.3 640 279.7 576 285C512 290.3 448 333.7 384 354.5C320 375.3 256 373.7 192 340.3C128 307 64 242 32 209.5L0 177Z" fill="#040021"></path><path d="M0 498L32 491.7C64 485.3 128 472.7 192 469C256 465.3 320 470.7 384 476C448 481.3 512 486.7 576 486.7C640 486.7 704 481.3 768 485C832 488.7 896 501.3 928 507.7L960 514L960 361L928 370.8C896 380.7 832 400.3 768 388.7C704 377 640 334 576 335C512 336 448 381 384 398C320 415 256 404 192 379.7C128 355.3 64 317.7 32 298.8L0 280Z" fill="#04001e"></path><path d="M0 541L32 541C64 541 128 541 192 541C256 541 320 541 384 541C448 541 512 541 576 541C640 541 704 541 768 541C832 541 896 541 928 541L960 541L960 512L928 505.7C896 499.3 832 486.7 768 483C704 479.3 640 484.7 576 484.7C512 484.7 448 479.3 384 474C320 468.7 256 463.3 192 467C128 470.7 64 483.3 32 489.7L0 496Z" fill="#04001b"></path></svg>